<?xml version="1.0" encoding="utf-8"?>
<!-- Generator: Adobe Illustrator 23.0.6, SVG Export Plug-In . SVG Version: 6.00 Build 0)  -->
<svg version="1.1" id="Calque_1" xmlns="http://www.w3.org/2000/svg" xmlns:xlink="http://www.w3.org/1999/xlink" x="0px" y="0px"
	 viewBox="0 0 682 682" style="enable-background:new 0 0 682 682;" xml:space="preserve">
<path d="M21,133.9v283.7c0,48.5,39.4,87.9,87.9,87.9h278.9l185,128.7V505.5c48.3-0.2,87.6-39.5,87.6-87.9V133.9
	c0-48.5-39.4-87.9-87.9-87.9H108.9C60.4,46,21,85.4,21,133.9z M58.4,133.9c0-27.8,22.6-50.4,50.4-50.4l463.6,0
	c27.8,0,50.4,22.6,50.4,50.4v283.7c0,27.8-22.6,50.4-50.4,50.4h-37.2v94.5L399.5,468H108.9c-27.8,0-50.4-22.6-50.4-50.4V133.9z"/>
<path d="M489.2,215.8H192.1v-37.5h297.1V215.8z"/>
<path d="M489.2,295.7l-297.1,0v-37.5l297.1,0V295.7z"/>
<path d="M489.2,375.6l-297.1,0v-37.5l297.1,0V375.6z"/>
</svg>
