<?xml version="1.0" encoding="utf-8"?>
<!-- Generator: Adobe Illustrator 23.0.6, SVG Export Plug-In . SVG Version: 6.00 Build 0)  -->
<svg version="1.1" id="Capa_1" xmlns="http://www.w3.org/2000/svg" xmlns:xlink="http://www.w3.org/1999/xlink" x="0px" y="0px"
	 viewBox="0 0 512 512" style="enable-background:new 0 0 512 512;" xml:space="preserve">
<style type="text/css">
	.st0{fill:#4183D7;}
</style>
<g>
	<g>
		<path class="st0" d="M437,75C388.7,26.6,324.4,0,256,0C187.6,0,123.3,26.6,75,75S0,187.6,0,256s26.6,132.7,75,181
			c48.4,48.3,112.6,75,181,75c68.4,0,132.7-26.6,181-75s75-112.6,75-181S485.4,123.3,437,75z M415.8,415.8
			C373.1,458.5,316.4,482,256,482s-117.1-23.5-159.8-66.2S30,316.4,30,256c0-60.4,23.5-117.1,66.2-159.8C138.9,53.5,195.6,30,256,30
			s117.1,23.5,159.8,66.2S482,195.6,482,256C482,316.4,458.5,373.1,415.8,415.8z"/>
	</g>
</g>
<g>
	<g>
		<path class="st0" d="M460.7,256C460.7,256,460.7,256,460.7,256c0-113.3-92.2-205.5-205.5-205.5S49.7,142.7,49.7,256c0,0,0,0,0,0
			c0,0,0,0,0,0c0,0,0,0,0,0c0,113.3,92.2,205.5,205.5,205.5c0.1,0,0.1,0,0.2,0c0,0,0,0,0.1,0c0,0,0.1,0,0.1,0
			C368.7,461.3,460.7,369.2,460.7,256C460.7,256,460.7,256,460.7,256L460.7,256z M240.2,81.1v68.6c-47.2,6.6-84.6,44.1-91.3,91.3
			H80.3C87.5,156.2,155.4,88.3,240.2,81.1z M240.5,430.9c-85-7.1-152.9-75-160.2-159.9h68.6c6.6,47.3,44.2,84.8,91.5,91.3
			L240.5,430.9L240.5,430.9z M270.2,81.1c84.8,7.2,152.7,75,159.9,159.9h-68.6c-6.6-47.2-44.1-84.6-91.3-91.3V81.1z M270.5,430.9
			v-68.6c47.1-6.7,84.4-44.1,91-91.2h68.6C422.9,355.7,355.2,423.5,270.5,430.9z"/>
	</g>
</g>
</svg>
