<?xml version="1.0" encoding="utf-8"?>
<!-- Generator: Adobe Illustrator 23.0.6, SVG Export Plug-In . SVG Version: 6.00 Build 0)  -->
<svg version="1.1" id="Layer_1" xmlns="http://www.w3.org/2000/svg" xmlns:xlink="http://www.w3.org/1999/xlink" x="0px" y="0px"
	 viewBox="0 0 492 289" style="enable-background:new 0 0 492 289;" xml:space="preserve">
<g>
	<g>
		<path d="M265.2,281.2L484.1,62.3c5.1-5.1,7.9-11.8,7.9-19s-2.8-14-7.9-19L468,8.1c-10.5-10.5-27.6-10.5-38.1,0L246.1,191.9L62,7.9
			C57,2.8,50.2,0,43,0c-7.2,0-14,2.8-19,7.9L7.9,24C2.8,29.1,0,35.8,0,43s2.8,14,7.9,19L227,281.2c5.1,5.1,11.9,7.9,19.1,7.8
			C253.3,289.1,260.1,286.3,265.2,281.2z"/>
	</g>
</g>
</svg>
