<?xml version="1.0" encoding="utf-8"?>
<!-- Generator: Adobe Illustrator 23.0.6, SVG Export Plug-In . SVG Version: 6.00 Build 0)  -->
<svg version="1.1" id="Capa_1" xmlns="http://www.w3.org/2000/svg" xmlns:xlink="http://www.w3.org/1999/xlink" x="0px" y="0px"
	 viewBox="0 0 24 24" style="enable-background:new 0 0 24 24;" xml:space="preserve">
<style type="text/css">
	.st0{fill:#FFFFFF;}
</style>
<g>
	<g>
		<path class="st0" d="M19.7,0H4.3C1.9,0,0,1.9,0,4.3v15.4C0,22.1,1.9,24,4.3,24h15.4c2.4,0,4.3-1.9,4.3-4.3V4.3
			C24,1.9,22.1,0,19.7,0z M22.3,19.7c0,1.4-1.2,2.6-2.6,2.6H4.3c-1.4,0-2.6-1.2-2.6-2.6V4.3c0-1.4,1.2-2.6,2.6-2.6h15.4
			c1.4,0,2.6,1.2,2.6,2.6V19.7z"/>
	</g>
</g>
<g>
	<g>
		<path class="st0" d="M16.3,11.1h-3.4V7.7c0-0.5-0.4-0.9-0.9-0.9c-0.5,0-0.9,0.4-0.9,0.9v3.4H7.7c-0.5,0-0.9,0.4-0.9,0.9
			c0,0.5,0.4,0.9,0.9,0.9h3.4v3.4c0,0.5,0.4,0.9,0.9,0.9c0.5,0,0.9-0.4,0.9-0.9v-3.4h3.4c0.5,0,0.9-0.4,0.9-0.9
			C17.1,11.5,16.8,11.1,16.3,11.1z"/>
	</g>
</g>
</svg>
